<svg xmlns="http://www.w3.org/2000/svg" width="50" height="57" fill="#ED7F22" viewBox="0 0 50 57"><circle cx="25.5" cy="33.5" r="23.5" fill="url(#paint0_linear_1505_1252)"></circle><path d="M42.5286 15.4331C42.1985 14.9731 41.9348 14.469 41.7453 13.9356C41.6353 13.3549 41.6081 12.7615 41.6644 12.1731C41.8016 11.1478 41.6447 10.1045 41.2119 9.16485C40.6087 8.31193 39.7747 7.64878 38.8078 7.25321C38.2784 7.01356 37.7857 6.69987 37.3445 6.32156C36.9665 5.88019 36.6528 5.38753 36.4128 4.85825C36.0176 3.89121 35.3547 3.05694 34.502 2.45329C33.5622 2.02115 32.5191 1.86453 31.4938 2.00163C30.9054 2.05818 30.3121 2.03125 29.7313 1.92163C29.1975 1.73227 28.6931 1.46857 28.233 1.13831C27.3954 0.488843 26.3888 0.0937275 25.333 0C24.2774 0.0934854 23.2708 0.488308 22.4331 1.13748C21.9729 1.46762 21.4685 1.73132 20.9348 1.9208C20.3542 2.02981 19.7612 2.05702 19.1731 2.00163C18.1475 1.86454 17.104 2.02145 16.164 2.45413C15.3114 3.05748 14.6486 3.89147 14.2532 4.85825C14.0136 5.3877 13.6999 5.88039 13.3216 6.32156C12.8802 6.69959 12.3875 7.01325 11.8583 7.25321C10.8912 7.6485 10.0569 8.31135 9.45329 9.16401C9.02124 10.1039 8.86462 11.147 9.00163 12.1723C9.0582 12.7606 9.03127 13.354 8.92163 13.9348C8.73234 14.4688 8.46864 14.9735 8.13831 15.4339C7.48899 16.2713 7.09388 17.2776 7 18.333C7.09349 19.3887 7.48831 20.3953 8.13748 21.233C8.46762 21.6932 8.73132 22.1976 8.9208 22.7313C9.03066 23.3118 9.05787 23.9048 9.00163 24.4929C8.86426 25.5186 9.02118 26.5621 9.45413 27.502C10.0575 28.3546 10.8915 29.0175 11.8583 29.4128C12.3877 29.6528 12.8804 29.9667 13.3216 30.3453C13.6995 30.7864 14.0132 31.2788 14.2532 31.8078C14.4882 32.2836 14.7587 32.741 15.0624 33.1761L10.3833 46.0309C10.3294 46.1785 10.3184 46.3382 10.3514 46.4918C10.3845 46.6454 10.4602 46.7864 10.57 46.8988C10.6797 47.0112 10.819 47.0902 10.9717 47.1269C11.1245 47.1635 11.2845 47.1562 11.4333 47.1059L15.8565 45.6117L18.2848 49.6C18.3592 49.7222 18.4639 49.8233 18.5887 49.8933C18.7135 49.9634 18.8542 50.0001 18.9973 50C19.024 50 19.0515 49.9983 19.079 49.9958C19.2353 49.9804 19.3841 49.921 19.5081 49.8246C19.6321 49.7281 19.7263 49.5986 19.7798 49.4508L24.4772 36.5477C25.0371 36.7059 25.6298 36.7059 26.1897 36.5477L30.8863 49.4508C30.9398 49.5986 31.034 49.7281 31.158 49.8246C31.282 49.921 31.4308 49.9804 31.5871 49.9958C31.6146 49.9983 31.6429 50 31.6696 50C31.8126 50 31.9531 49.9632 32.0778 49.8931C32.2024 49.8231 32.3069 49.7221 32.3812 49.6L34.8095 45.6109L39.2328 47.105C39.3815 47.1553 39.5414 47.1625 39.694 47.1259C39.8466 47.0893 39.9858 47.0103 40.0955 46.8981C40.2052 46.7859 40.281 46.6449 40.3141 46.4915C40.3473 46.3381 40.3364 46.1784 40.2828 46.0309L35.6037 33.1753C35.9069 32.7403 36.1771 32.2832 36.412 31.8078C36.6522 31.2783 36.9664 30.7856 37.3453 30.3445C37.7864 29.9665 38.2788 29.6529 38.8078 29.4128C39.7748 29.0176 40.6091 28.3547 41.2128 27.502C41.6448 26.5622 41.8014 25.5191 41.6644 24.4938C41.6078 23.9054 41.6348 23.3121 41.7444 22.7313C41.9338 22.1975 42.1975 21.6931 42.5277 21.233C43.1772 20.3954 43.5723 19.3888 43.6661 18.333C43.5726 17.2774 43.1777 16.2708 42.5286 15.4331ZM18.8073 47.2517L16.934 44.1751C16.8355 44.0134 16.6849 43.89 16.5069 43.8253C16.3289 43.7606 16.1342 43.7585 15.9549 43.8193L12.5424 44.9717L16.414 34.3353C17.2951 34.6591 18.2398 34.7719 19.1723 34.6644C19.7606 34.6083 20.3539 34.6353 20.9348 34.7444C21.4688 34.9337 21.9735 35.1974 22.4339 35.5277C22.6031 35.6361 22.7781 35.7461 22.9564 35.8527L18.8073 47.2517ZM34.7112 43.8193C34.5319 43.7585 34.3372 43.7606 34.1592 43.8253C33.9812 43.89 33.8305 44.0134 33.7321 44.1751L31.8588 47.2517L27.7097 35.8536C27.8888 35.7452 28.0638 35.6361 28.233 35.5286C28.6929 35.1985 29.197 34.9348 29.7305 34.7453C30.3112 34.6357 30.9046 34.6085 31.4929 34.6644C32.4258 34.7723 33.3709 34.6592 34.252 34.3344L38.1236 44.9717L34.7112 43.8193ZM41.1219 20.3372C40.6954 20.9381 40.3627 21.6004 40.1353 22.3013C39.9763 23.0434 39.9302 23.8054 39.9986 24.5613C40.1037 25.2715 40.0248 25.9968 39.7695 26.6679C39.3109 27.2327 38.7141 27.6693 38.037 27.9354C37.3545 28.2482 36.7237 28.6633 36.1662 29.1662C35.6627 29.7234 35.2474 30.3543 34.9345 31.037C34.6686 31.7144 34.232 32.3115 33.6671 32.7703C32.9958 33.0247 32.2706 33.1033 31.5604 32.9986C30.8045 32.9306 30.0427 32.9767 29.3005 33.1353C28.5998 33.3629 27.9379 33.6955 27.3372 34.1219C26.7576 34.585 26.0664 34.8876 25.333 34.9994C24.5996 34.8876 23.9085 34.585 23.3289 34.1219C22.728 33.6954 22.0657 33.3627 21.3648 33.1353C20.8971 33.0202 20.4163 32.967 19.9348 32.977C19.6565 32.977 19.379 32.9878 19.1048 32.9986C18.3946 33.1035 17.6694 33.0249 16.9982 32.7703C16.4332 32.3115 15.9966 31.7144 15.7307 31.037C15.4178 30.3545 15.0028 29.7237 14.4999 29.1662C13.9427 28.6627 13.3118 28.2474 12.6291 27.9345C11.9516 27.6686 11.3545 27.232 10.8958 26.6671C10.6407 25.9959 10.5621 25.2706 10.6674 24.5604C10.7358 23.8045 10.6898 23.0426 10.5308 22.3005C10.3032 21.5998 9.97051 20.9379 9.54412 20.3372C9.08104 19.7576 8.77843 19.0664 8.66664 18.333C8.77843 17.5996 9.08104 16.9085 9.54412 16.3289C9.97068 15.728 10.3034 15.0657 10.5308 14.3648C10.6898 13.6226 10.7359 12.8607 10.6674 12.1048C10.5624 11.3945 10.6413 10.6692 10.8966 9.99817C11.3551 9.43335 11.9519 8.99671 12.6291 8.73069C13.3116 8.41781 13.9424 8.00278 14.4999 7.49988C15.0033 6.94267 15.4187 6.31178 15.7315 5.62907C15.9974 4.95164 16.4341 4.35453 16.999 3.89577C17.6702 3.64089 18.3954 3.56228 19.1056 3.66744C19.8615 3.7354 20.6234 3.68933 21.3656 3.53077C22.0662 3.30319 22.7282 2.97051 23.3289 2.54412C23.9085 2.08104 24.5996 1.77843 25.333 1.66664C26.0664 1.77843 26.7576 2.08104 27.3372 2.54412C27.9381 2.97068 28.6004 3.30336 29.3013 3.53077C30.0435 3.68934 30.8053 3.73541 31.5613 3.66744C32.2715 3.5624 32.9968 3.6413 33.6679 3.8966C34.2327 4.35513 34.6693 4.95195 34.9354 5.62907C35.2482 6.31156 35.6633 6.9424 36.1662 7.49988C36.7234 8.00334 37.3543 8.41868 38.037 8.73152C38.7144 8.99742 39.3115 9.43406 39.7703 9.999C40.0253 10.6701 40.1039 11.3954 39.9986 12.1056C39.9302 12.8615 39.9763 13.6234 40.1353 14.3656C40.3629 15.0662 40.6955 15.7282 41.1219 16.3289C41.585 16.9085 41.8876 17.5996 41.9994 18.333C41.8876 19.0664 41.585 19.7576 41.1219 20.3372Z"></path><path d="M25.3331 4.99988C22.6961 4.99988 20.1183 5.78185 17.9256 7.24691C15.733 8.71197 14.0241 10.7943 13.0149 13.2306C12.0058 15.6669 11.7417 18.3478 12.2562 20.9341C12.7707 23.5205 14.0405 25.8963 15.9052 27.7609C17.7699 29.6256 20.1456 30.8954 22.732 31.4099C25.3183 31.9244 27.9992 31.6603 30.4355 30.6512C32.8718 29.642 34.9541 27.9331 36.4192 25.7405C37.8843 23.5478 38.6662 20.97 38.6662 18.333C38.6623 14.798 37.2562 11.409 34.7567 8.90944C32.2571 6.40986 28.8681 5.00385 25.3331 4.99988ZM25.3331 29.9995C23.0257 29.9995 20.7701 29.3152 18.8516 28.0333C16.933 26.7514 15.4377 24.9293 14.5547 22.7976C13.6717 20.6658 13.4407 18.32 13.8908 16.057C14.341 13.7939 15.4521 11.7151 17.0837 10.0835C18.7153 8.45196 20.794 7.34084 23.0571 6.89068C25.3202 6.44053 27.6659 6.67157 29.7977 7.55457C31.9295 8.43758 33.7515 9.9329 35.0334 11.8514C36.3154 13.77 36.9996 16.0256 36.9996 18.333C36.9961 21.426 35.7658 24.3914 33.5787 26.5785C31.3915 28.7657 28.4262 29.9959 25.3331 29.9995Z"></path><path d="M28.3227 14.1747L26.0794 9.63147C26.0029 9.50134 25.8937 9.39345 25.7627 9.31849C25.6317 9.24353 25.4833 9.2041 25.3324 9.2041C25.1814 9.2041 25.0331 9.24353 24.902 9.31849C24.771 9.39345 24.6618 9.50134 24.5853 9.63147L22.3437 14.1756L17.3271 14.9047C17.1733 14.9272 17.0289 14.9922 16.9102 15.0924C16.7914 15.1926 16.7031 15.324 16.655 15.4718C16.607 15.6195 16.6013 15.7778 16.6385 15.9286C16.6756 16.0795 16.7542 16.217 16.8654 16.3255L20.4945 19.863L19.6379 24.8587C19.6116 25.012 19.6288 25.1695 19.6874 25.3135C19.746 25.4575 19.8437 25.5823 19.9695 25.6737C20.0953 25.765 20.2441 25.8194 20.3992 25.8306C20.5543 25.8418 20.7094 25.8094 20.847 25.737L25.3328 23.3787L29.8185 25.737C29.9562 25.8094 30.1113 25.8418 30.2664 25.8306C30.4214 25.8194 30.5703 25.765 30.6961 25.6737C30.8219 25.5823 30.9196 25.4575 30.9782 25.3135C31.0368 25.1695 31.0539 25.012 31.0277 24.8587L30.171 19.863L33.8001 16.3255C33.9113 16.2169 33.9899 16.0794 34.0271 15.9285C34.0642 15.7775 34.0584 15.6192 34.0103 15.4714C33.9622 15.3237 33.8737 15.1923 33.7548 15.0921C33.636 14.992 33.4915 14.9271 33.3376 14.9047L28.3227 14.1747ZM28.6936 18.9755C28.5969 19.0698 28.5246 19.1862 28.483 19.3147C28.4413 19.4432 28.4315 19.5799 28.4544 19.713L29.0994 23.4762L25.7211 21.6996C25.6014 21.6365 25.4681 21.6036 25.3328 21.6036C25.1975 21.6036 25.0642 21.6365 24.9445 21.6996L21.5662 23.4762L22.2112 19.713C22.2339 19.58 22.224 19.4435 22.1824 19.3152C22.1407 19.1869 22.0685 19.0706 21.972 18.9763L19.2379 16.3105L23.0161 15.7614C23.1499 15.742 23.2769 15.6904 23.3862 15.611C23.4955 15.5316 23.5839 15.4267 23.6436 15.3055L25.3328 11.8831L27.0219 15.3055C27.0817 15.4267 27.17 15.5316 27.2793 15.611C27.3887 15.6904 27.5157 15.742 27.6494 15.7614L31.4277 16.3114L28.6936 18.9755Z"></path><defs><linearGradient id="paint0_linear_1505_1252" x1="25.5" y1="10" x2="25.5" y2="57" gradientUnits="userSpaceOnUse"><stop offset="0" stop-color="#06D889 " stop-opacity="0"></stop><stop offset="1" stop-color="#06D889" stop-opacity="0.28"></stop></linearGradient></defs></svg>