<svg xmlns="http://www.w3.org/2000/svg" width="50" height="57" fill="#ED7F22" viewBox="0 0 50 57"><circle  cx="25.5" cy="33.5" r="23.5" fill="url(#paint0_linear_1505_1244)"></circle><g clip-path="url(#clip0_1505_1236)"><path d="M46.8148 27.3844L39.8438 24.4789V22.393C40.8033 21.8422 41.6342 21.0929 42.2809 20.1952C42.9276 19.2975 43.3752 18.2721 43.5938 17.1875H43.75C44.3716 17.196 44.9711 16.9572 45.4167 16.5237C45.8622 16.0901 46.1173 15.4974 46.1258 14.8758C46.1343 14.2542 45.8955 13.6546 45.462 13.2091C45.0284 12.7636 44.4357 12.5085 43.8141 12.5L44.5797 10.725C45.2339 9.20822 45.2673 7.49543 44.6728 5.95429C44.0784 4.41315 42.9033 3.16652 41.4 2.48201L39.2188 1.48982C37.9281 0.916787 36.5088 0.695321 35.1049 0.847895C33.701 1.00047 32.3624 1.52165 31.225 2.35857L30.0094 3.27576C28.7682 3.59543 27.7021 4.38965 27.0406 5.48748C26.6753 6.09393 26.4474 6.77308 26.3729 7.47713C26.2984 8.18118 26.3791 8.893 26.6094 9.56248C25.4299 9.32656 24.2127 9.35618 23.0461 9.6492C23.3801 8.23172 23.2115 6.74227 22.5693 5.43522C21.9272 4.12818 20.8511 3.08463 19.525 2.48279L17.3438 1.48982C16.0531 0.916787 14.6338 0.695321 13.2299 0.847895C11.826 1.00047 10.4874 1.52165 9.35001 2.35857L8.13438 3.27576C7.4303 3.45567 6.77545 3.79096 6.21788 4.25701C5.66031 4.72307 5.21418 5.30806 4.91223 5.96906C4.61028 6.63006 4.46017 7.35028 4.47293 8.07686C4.48568 8.80345 4.66098 9.51796 4.98594 10.1679L6.15313 12.5C5.53153 12.5128 4.94049 12.7721 4.51004 13.2207C4.07958 13.6693 3.84497 14.2706 3.85782 14.8922C3.87066 15.5138 4.12991 16.1048 4.57854 16.5353C5.02716 16.9657 5.6284 17.2003 6.25001 17.1875H6.40626C6.62566 18.2715 7.0736 19.2964 7.72022 20.1937C8.36685 21.091 9.19731 21.8403 10.1563 22.3914V24.4789L3.18516 27.3844C2.47253 27.6798 1.86366 28.1802 1.43571 28.822C1.00775 29.4639 0.779978 30.2184 0.781255 30.9898V41.4062C0.781255 41.6134 0.863565 41.8121 1.01008 41.9587C1.15659 42.1052 1.3553 42.1875 1.56251 42.1875H7.03126V48.4375C7.03126 48.6447 7.11357 48.8434 7.26008 48.9899C7.40659 49.1364 7.6053 49.2187 7.81251 49.2187H42.1875C42.3947 49.2187 42.5934 49.1364 42.7399 48.9899C42.8864 48.8434 42.9688 48.6447 42.9688 48.4375V42.1875H48.4375C48.6447 42.1875 48.8434 42.1052 48.9899 41.9587C49.1364 41.8121 49.2188 41.6134 49.2188 41.4062V30.9898C49.22 30.2184 48.9923 29.4639 48.5643 28.822C48.1363 28.1802 47.5275 27.6798 46.8148 27.3844ZM27.6352 11.5054L29.8156 12.5C30.9466 13.0152 31.8305 13.9533 32.2776 15.1129C32.7247 16.2725 32.6994 17.5612 32.207 18.7023L31.9727 19.2375L31.1719 17.6195C31.1208 17.5165 31.0476 17.426 30.9576 17.3545C30.8675 17.283 30.7628 17.2323 30.6508 17.2059C30.5389 17.1796 30.4225 17.1783 30.31 17.2021C30.1975 17.2259 30.0917 17.2743 30 17.3437L28.75 18.2812C27.6682 19.0926 26.3523 19.5312 25 19.5312C23.6477 19.5312 22.3319 19.0926 21.25 18.2812L20 17.3437C19.9088 17.2747 19.8034 17.2267 19.6914 17.2033C19.5794 17.18 19.4636 17.1817 19.3524 17.2086C19.2408 17.2347 19.1364 17.2851 19.0464 17.3561C18.9565 17.4271 18.8833 17.5171 18.832 17.6195L17.9688 19.3523L17.3234 18.0625C17.0717 17.5589 16.9528 16.9994 16.9781 16.437C17.0033 15.8746 17.1719 15.3279 17.4677 14.849C17.7635 14.37 18.1769 13.9745 18.6685 13.7002C19.16 13.4258 19.7136 13.2816 20.2766 13.2812C20.8784 13.2807 21.471 13.4289 22.0017 13.7129C22.5323 13.9968 22.9845 14.4076 23.318 14.9086L23.5633 15.2773L24.8633 14.4101L24.618 14.0422C23.9236 13.0018 22.8778 12.2463 21.6719 11.914C22.5581 11.3671 23.5641 11.0441 24.603 10.9729C25.642 10.9018 26.6826 11.0845 27.6352 11.5054ZM32.8125 22.6562H33.5938C33.801 22.6562 33.9997 22.7385 34.1462 22.8851C34.2927 23.0316 34.375 23.2303 34.375 23.4375C34.375 23.6447 34.2927 23.8434 34.1462 23.9899C33.9997 24.1364 33.801 24.2187 33.5938 24.2187H32.8125V22.6562ZM22.6563 31.6711C24.1819 32.1513 25.8182 32.1513 27.3438 31.6711V33.2703L25 35.614L22.6563 33.2703V31.6711ZM25 30.4687C23.343 30.4669 21.7543 29.8078 20.5826 28.6361C19.4109 27.4644 18.7519 25.8758 18.75 24.2187V21.2781L19.8109 19.1554L20.3125 19.5312C21.6648 20.5455 23.3096 21.0937 25 21.0937C26.6904 21.0937 28.3352 20.5455 29.6875 19.5312L30.1891 19.1554L31.25 21.2781V24.2187C31.2481 25.8758 30.5891 27.4644 29.4174 28.6361C28.2457 29.8078 26.657 30.4669 25 30.4687ZM17.1875 24.2187H16.4063C16.1991 24.2187 16.0003 24.1364 15.8538 23.9899C15.7073 23.8434 15.625 23.6447 15.625 23.4375C15.625 23.2303 15.7073 23.0316 15.8538 22.8851C16.0003 22.7385 16.1991 22.6562 16.4063 22.6562H17.1875V24.2187ZM7.03126 39.875V40.625H2.34376V30.9898C2.34347 30.5273 2.48033 30.075 2.73703 29.6903C2.99373 29.3055 3.35875 29.0055 3.78594 28.8281L11.2383 25.7234C11.381 25.6639 11.5028 25.5634 11.5883 25.4346C11.6738 25.3058 11.7192 25.1546 11.7188 25V21.925C11.7146 21.777 11.6704 21.6329 11.5907 21.5081C11.511 21.3832 11.3989 21.2824 11.2664 21.2164C10.3325 20.7518 9.53022 20.06 8.9334 19.2045C8.33658 18.349 7.96431 17.3572 7.85079 16.3203C7.82963 16.1291 7.7387 15.9525 7.59542 15.8242C7.45213 15.6959 7.26655 15.625 7.07422 15.625H6.25001C6.0428 15.625 5.84409 15.5427 5.69758 15.3962C5.55107 15.2496 5.46876 15.0509 5.46876 14.8437C5.46876 14.6365 5.55107 14.4378 5.69758 14.2913C5.84409 14.1448 6.0428 14.0625 6.25001 14.0625H7.03126C7.13431 14.0625 7.23635 14.0421 7.33149 14.0025C7.42664 13.9629 7.51301 13.9049 7.58562 13.8317C7.65824 13.7586 7.71567 13.6718 7.75461 13.5764C7.79355 13.481 7.81323 13.3788 7.81251 13.2758L7.80704 12.4945C7.80631 12.3752 7.77825 12.2576 7.725 12.1508L6.3836 9.46873C6.1589 9.01844 6.04005 8.52277 6.03614 8.01955C6.03223 7.51632 6.14335 7.01886 6.36101 6.56513C6.57868 6.11141 6.89715 5.71341 7.29209 5.40154C7.68704 5.08966 8.14802 4.87215 8.63985 4.76561C8.75041 4.74111 8.85453 4.69345 8.94532 4.62576L10.2891 3.61014C11.2009 2.93995 12.2736 2.52267 13.3986 2.40057C14.5237 2.27846 15.661 2.45587 16.6953 2.91482L18.8781 3.90623C20.0091 4.42145 20.893 5.35955 21.3401 6.51916C21.7872 7.67877 21.7619 8.96745 21.2695 10.1086L21.143 10.4015C20.8463 10.5658 20.561 10.7498 20.2891 10.9523L19.057 11.875C18.3544 12.0555 17.7011 12.391 17.145 12.8569C16.5889 13.3229 16.1442 13.9074 15.8435 14.5676C15.5427 15.2278 15.3936 15.9469 15.4071 16.6723C15.4205 17.3976 15.5961 18.1107 15.9211 18.7594L17.0898 21.0937H16.4063C15.7847 21.0937 15.1885 21.3407 14.749 21.7802C14.3094 22.2197 14.0625 22.8159 14.0625 23.4375C14.0625 24.0591 14.3094 24.6552 14.749 25.0948C15.1885 25.5343 15.7847 25.7812 16.4063 25.7812H17.3438C17.5675 26.8622 18.0173 27.8837 18.6635 28.7787C19.3098 29.6736 20.138 30.4218 21.0938 30.9742V33L9.89219 36.1117C9.07052 36.3418 8.34645 36.8339 7.83005 37.5131C7.31365 38.1924 7.03318 39.0217 7.03126 39.875ZM41.4063 47.6562H36.7188V41.4062H35.1563V47.6562H14.8438V41.4062H13.2813V47.6562H8.59376V39.875C8.59489 39.3627 8.76345 38.8649 9.07373 38.4573C9.38402 38.0497 9.81903 37.7546 10.3125 37.6172L21.6477 34.4687L24.45 37.2711C24.5965 37.4175 24.7952 37.4998 25.0023 37.4998C25.2095 37.4998 25.4082 37.4175 25.5547 37.2711L28.357 34.4687L39.6875 37.6172C40.181 37.7546 40.616 38.0497 40.9263 38.4573C41.2366 38.8649 41.4051 39.3627 41.4063 39.875V47.6562ZM47.6563 40.625H42.9688V39.875C42.9668 39.0217 42.6864 38.1924 42.17 37.5131C41.6536 36.8339 40.9295 36.3418 40.1078 36.1117L28.9063 33V30.9742C29.862 30.4218 30.6902 29.6736 31.3365 28.7787C31.9827 27.8837 32.4325 26.8622 32.6563 25.7812H33.5938C34.2154 25.7812 34.8115 25.5343 35.251 25.0948C35.6906 24.6552 35.9375 24.0591 35.9375 23.4375C35.9375 22.8159 35.6906 22.2197 35.251 21.7802C34.8115 21.3407 34.2154 21.0937 33.5938 21.0937H32.8766L33.6422 19.3195C34.2964 17.8028 34.3298 16.09 33.7353 14.5488C33.1409 13.0077 31.9658 11.7611 30.4625 11.0765L28.65 10.2508L28.2594 9.46951C28.0345 9.01925 27.9155 8.52355 27.9115 8.02028C27.9075 7.51701 28.0185 7.01947 28.2361 6.56565C28.4537 6.11184 28.7721 5.71374 29.167 5.40178C29.562 5.08981 30.023 4.87221 30.5148 4.76561C30.6254 4.74111 30.7295 4.69345 30.8203 4.62576L32.1641 3.61014C33.0759 2.93995 34.1486 2.52267 35.2736 2.40057C36.3987 2.27846 37.5359 2.45587 38.5703 2.91482L40.7531 3.90623C41.8841 4.42145 42.768 5.35955 43.2151 6.51916C43.6622 7.67877 43.6369 8.96745 43.1445 10.1086L42.2461 12.1875C42.2035 12.2861 42.1817 12.3925 42.182 12.5L42.1875 13.2812C42.1875 13.4884 42.2698 13.6871 42.4163 13.8337C42.5628 13.9802 42.7616 14.0625 42.9688 14.0625H43.75C43.9572 14.0625 44.1559 14.1448 44.3024 14.2913C44.4489 14.4378 44.5313 14.6365 44.5313 14.8437C44.5313 15.0509 44.4489 15.2496 44.3024 15.3962C44.1559 15.5427 43.9572 15.625 43.75 15.625H42.9258C42.7335 15.625 42.5479 15.6959 42.4046 15.8242C42.2613 15.9525 42.1704 16.1291 42.1492 16.3203C42.0353 17.3612 41.6605 18.3564 41.0597 19.2139C40.4588 20.0714 39.6512 20.7634 38.7117 21.2258C38.5816 21.2904 38.472 21.3901 38.3954 21.5137C38.3188 21.6372 38.2782 21.7796 38.2781 21.925V25C38.2781 25.1542 38.3237 25.3049 38.4092 25.4332C38.4947 25.5616 38.6163 25.6617 38.7586 25.7211L46.2141 28.8281C46.6413 29.0055 47.0063 29.3055 47.263 29.6903C47.5197 30.075 47.6565 30.5273 47.6563 30.9898V40.625Z"></path></g><defs><linearGradient id="paint0_linear_1505_1236" x1="25.5" y1="10" x2="25.5" y2="57" gradientUnits="userSpaceOnUse"><stop offset="0" stop-color="#06D889" stop-opacity="0"></stop><stop offset="1" stop-color="#06D889" stop-opacity="0.28"></stop></linearGradient><clipPath id="clip0_1505_1236"><rect width="50" height="50" fill="white"></rect></clipPath></defs></svg>