<svg xmlns="http://www.w3.org/2000/svg" fill='#ED7F22' width="60" height="60" viewBox="0 0 60 60"><g clip-path="url(#clip0_1453_782)"><path d="M17.1582 11.995C23.0563 9.33433 27.4156 5.89992 29.7645 2.0632C29.8004 2.00472 29.8517 1.97507 29.9172 1.97507C29.9827 1.97507 30.034 2.00472 30.0699 2.0632C31.8056 4.89808 34.5917 7.48183 38.3512 9.74273C42.029 11.9546 46.4527 13.748 51.4989 15.0728C51.6196 15.1045 51.7061 15.2073 51.7144 15.3287C51.7813 16.3132 51.8152 17.3488 51.8152 18.407C51.8152 22.3308 50.784 26.7325 48.7501 31.4899C48.6587 31.7036 48.656 31.9449 48.7426 32.1606C48.8291 32.3763 48.9977 32.5488 49.2114 32.6402C49.5264 32.7649 50.0931 32.7175 50.3617 32.1789C52.4892 27.2024 53.5679 22.5689 53.5679 18.407C53.5679 17.3094 53.5326 16.2337 53.463 15.21C53.4038 14.3369 52.7934 13.6005 51.944 13.3778C42.1817 10.8145 34.7538 6.35707 31.5645 1.14808C31.2097 0.568472 30.5938 0.222534 29.9171 0.222534C29.2403 0.222534 28.6245 0.568472 28.2697 1.14808C26.1051 4.68363 22.0136 7.88191 16.4374 10.3973C16.2255 10.4929 16.0603 10.6688 15.9781 10.8862C15.8959 11.1035 15.9033 11.3447 15.9988 11.5566C16.0946 11.7683 16.2705 11.9334 16.4878 12.0156C16.7052 12.0978 16.9463 12.0904 17.1582 11.995Z"></path><path d="M38.8541 35.9311V28.8577C38.8541 27.2703 37.6301 25.9642 36.0763 25.8317V24.4887C36.0763 21.0925 33.3134 18.3295 29.9171 18.3295C26.5207 18.3295 23.7578 21.0924 23.7578 24.4887V25.8318C22.204 25.9642 20.98 27.2703 20.98 28.8578V35.9313C20.98 37.6063 22.3428 38.9691 24.0178 38.9691H35.8163C37.4915 38.969 38.8541 37.6063 38.8541 35.9311ZM29.9172 20.0821C32.3469 20.0821 34.3238 22.059 34.3238 24.4887V25.82H25.5104V24.4887C25.5104 22.0588 27.4873 20.0821 29.9172 20.0821ZM22.7326 35.9311V28.8577C22.7326 28.1491 23.3092 27.5725 24.0178 27.5725H35.8163C36.5249 27.5725 37.1015 28.1491 37.1015 28.8577V35.9311C37.1015 36.6398 36.5249 37.2163 35.8163 37.2163H24.0178C23.3092 37.2165 22.7326 36.6399 22.7326 35.9311Z"></path><path d="M29.8504 30.1784C28.9632 30.2345 28.2383 30.9495 28.1709 31.8359C28.1108 32.6276 28.5628 33.321 29.2299 33.6209V34.75C29.2299 34.8003 29.2398 34.8502 29.2591 34.8967C29.2783 34.9432 29.3065 34.9855 29.3421 35.0211C29.3777 35.0567 29.42 35.0849 29.4665 35.1042C29.513 35.1234 29.5629 35.1333 29.6132 35.1333H30.3221C30.3724 35.1333 30.4223 35.1234 30.4688 35.1042C30.5153 35.0849 30.5576 35.0567 30.5932 35.0211C30.6288 34.9855 30.657 34.9432 30.6763 34.8967C30.6955 34.8502 30.7054 34.8003 30.7054 34.75V33.6209C31.3327 33.3389 31.7698 32.7091 31.7698 31.9768C31.7698 30.9427 30.8989 30.1121 29.8504 30.1784Z"></path><path d="M57.446 42.7513C56.4354 42.7513 55.5601 43.3414 55.1463 44.1953H43.6638C44.1782 43.4349 44.6811 42.6668 45.1721 41.8912H51.1498C51.5711 41.8912 51.967 41.7272 52.2652 41.4293L54.0507 39.6436H55.0991C55.4904 40.5529 56.395 41.1913 57.446 41.1913C58.8543 41.1913 60 40.0455 60 38.6373C60 37.2292 58.8543 36.0834 57.446 36.0834C56.2975 36.0834 55.3237 36.8457 55.0037 37.8909H53.9782C53.5568 37.8909 53.1608 38.055 52.8628 38.3528L51.0771 40.1386H46.2517C47.0541 38.7991 47.8256 37.4238 48.5477 36.0217C48.6004 35.9194 48.6324 35.8077 48.642 35.693C48.6515 35.5783 48.6383 35.4629 48.6032 35.3533C48.5681 35.2437 48.5118 35.142 48.4374 35.0542C48.3631 34.9664 48.2721 34.8941 48.1698 34.8414C48.0675 34.7887 47.9558 34.7567 47.8411 34.7471C47.7264 34.7376 47.611 34.7508 47.5014 34.7859C47.3918 34.821 47.2902 34.8773 47.2023 34.9517C47.1145 35.026 47.0422 35.117 46.9895 35.2193C41.4971 45.8845 32.8228 55.2484 30.2951 57.8644C30.195 57.968 30.0607 58.025 29.917 58.025C29.7734 58.025 29.6391 57.968 29.539 57.8644C27.4227 55.6743 21.9745 49.7864 17.1034 42.4311C11.0754 33.3289 8.01891 25.2461 8.01891 18.407C8.01891 17.3488 8.05277 16.3132 8.11969 15.3284C8.12789 15.2072 8.21449 15.1045 8.3352 15.0728C9.96762 14.6442 11.5625 14.1568 13.0755 13.6246C13.2937 13.5466 13.4722 13.3855 13.5719 13.1763C13.6716 12.9671 13.6843 12.727 13.6074 12.5084C13.5305 12.2899 13.3702 12.1107 13.1615 12.01C12.9528 11.9093 12.7128 11.8954 12.4938 11.9713C11.0256 12.488 9.4766 12.9612 7.89012 13.3777C7.04051 13.6007 6.43008 14.3371 6.37113 15.2098C6.30152 16.2337 6.26625 17.3094 6.26625 18.4069C6.26625 24.754 8.7266 32.0517 13.5837 40.1385H8.75719L6.97148 38.3528C6.82533 38.2059 6.65149 38.0894 6.46004 38.0102C6.26858 37.9309 6.06331 37.8904 5.85609 37.8909H4.99617C4.67613 36.8457 3.70242 36.0834 2.55387 36.0834C1.14574 36.0833 0 37.2291 0 38.6372C0 40.0454 1.14574 41.1912 2.55398 41.1912C3.60492 41.1912 4.50949 40.5527 4.9009 39.6435H5.78367L7.56926 41.4292C7.71541 41.5761 7.88924 41.6926 8.08069 41.7719C8.27215 41.8511 8.47742 41.8917 8.68465 41.8911H14.6665C14.9869 42.3968 15.3123 42.8994 15.6425 43.3988C15.8191 43.6651 15.9971 43.9306 16.1764 44.1952H4.85367C4.43988 43.3413 3.56461 42.7512 2.55398 42.7512C1.14574 42.7513 0 43.8969 0 45.3052C0 46.7133 1.14574 47.859 2.55398 47.859C3.74027 47.859 4.74012 47.0459 5.02582 45.9478H17.3917C17.9524 46.7381 18.5239 47.5207 19.106 48.2953H12.1934C11.835 47.3174 10.8949 46.6177 9.79441 46.6177C8.38617 46.6177 7.24043 47.7634 7.24043 49.1716C7.24043 50.5799 8.38617 51.7256 9.79441 51.7256C10.8949 51.7256 11.835 51.0259 12.1934 50.048H20.4496C21.022 50.7797 21.6029 51.5047 22.1924 52.2227H18.4025C18.1953 52.2222 17.99 52.2627 17.7985 52.342C17.6071 52.4213 17.4332 52.5378 17.287 52.6847L15.5014 54.4704H14.4646C14.1062 53.4925 13.1661 52.7927 12.0655 52.7927C10.6573 52.7927 9.51152 53.9385 9.51152 55.3467C9.51152 56.7548 10.6573 57.9006 12.0655 57.9006C13.166 57.9006 14.1062 57.2009 14.4646 56.223H15.574C15.7812 56.2236 15.9865 56.183 16.178 56.1037C16.3695 56.0244 16.5433 55.9079 16.6895 55.761L18.475 53.9754H23.6591C25.6453 56.3044 27.3079 58.0774 28.2787 59.0823C28.7122 59.5308 29.2941 59.7777 29.9171 59.7777C30.5402 59.7777 31.1221 59.5308 31.5555 59.0823C32.648 57.9518 34.2859 56.1979 36.1856 53.973C36.2014 53.9739 36.217 53.9754 36.2331 53.9754H41.3593L43.1452 55.7613C43.2913 55.9082 43.4651 56.0246 43.6565 56.1038C43.8479 56.1831 44.0531 56.2236 44.2603 56.223H45.3697C45.7281 57.2009 46.6683 57.9006 47.7688 57.9006C49.177 57.9006 50.3228 56.7548 50.3228 55.3467C50.3228 53.9385 49.177 52.7927 47.7688 52.7927C46.6683 52.7927 45.7281 53.4925 45.3697 54.4704H44.3329L42.5469 52.6843C42.4008 52.5375 42.227 52.4211 42.0355 52.3419C41.8441 52.2627 41.6389 52.2222 41.4318 52.2227H37.6514C38.2412 51.5048 38.8224 50.7798 39.3949 50.048H47.6743C48.0327 51.0259 48.9728 51.7256 50.0733 51.7256C51.4815 51.7256 52.6273 50.5799 52.6273 49.1716C52.6273 47.7634 51.4815 46.6177 50.0733 46.6177C48.9728 46.6177 48.0327 47.3174 47.6743 48.2953H40.7384C41.3198 47.5207 41.8906 46.7381 42.4506 45.9478H54.9742C55.2599 47.0459 56.2597 47.859 57.446 47.859C58.8543 47.859 60 46.7133 60 45.3052C60 43.8969 58.8543 42.7513 57.446 42.7513ZM57.446 37.836C57.8878 37.836 58.2473 38.1954 58.2473 38.6372C58.2473 39.079 57.8878 39.4385 57.446 39.4385C57.0042 39.4385 56.6448 39.079 56.6448 38.6372C56.6448 38.1954 57.0042 37.836 57.446 37.836ZM2.55398 39.4385C2.11207 39.4385 1.75266 39.079 1.75266 38.6372C1.75266 38.1954 2.11207 37.836 2.55398 37.836C2.99578 37.836 3.3552 38.1954 3.3552 38.6372C3.3552 39.079 2.99578 39.4385 2.55398 39.4385ZM2.55398 46.1064C2.34155 46.1062 2.13787 46.0217 1.98764 45.8715C1.83741 45.7213 1.7529 45.5176 1.75266 45.3052C1.75287 45.0927 1.83737 44.889 1.9876 44.7388C2.13783 44.5885 2.34153 44.504 2.55398 44.5038C2.76642 44.5041 2.97009 44.5886 3.12029 44.7388C3.2705 44.889 3.35498 45.0927 3.3552 45.3052C3.35495 45.5176 3.27045 45.7212 3.12025 45.8714C2.97005 46.0216 2.7664 46.1061 2.55398 46.1064ZM9.79441 49.973C9.3525 49.973 8.99309 49.6136 8.99309 49.1716C8.99309 48.7297 9.3525 48.3703 9.79441 48.3703C10.2362 48.3703 10.5956 48.7297 10.5956 49.1716C10.5956 49.6136 10.2362 49.973 9.79441 49.973ZM12.0657 56.1479C11.6238 56.1479 11.2644 55.7885 11.2644 55.3467C11.2644 54.9049 11.6238 54.5454 12.0657 54.5454C12.5077 54.5454 12.8671 54.9049 12.8671 55.3467C12.8671 55.7885 12.5077 56.1479 12.0657 56.1479ZM47.7687 54.5454C48.2106 54.5454 48.57 54.9049 48.57 55.3467C48.57 55.7885 48.2106 56.1479 47.7687 56.1479C47.3268 56.1479 46.9673 55.7885 46.9673 55.3467C46.9673 54.9049 47.3268 54.5454 47.7687 54.5454ZM50.0734 48.3703C50.5153 48.3703 50.8747 48.7297 50.8747 49.1716C50.8747 49.6136 50.5153 49.973 50.0734 49.973C49.6316 49.973 49.2722 49.6136 49.2722 49.1716C49.2722 48.7297 49.6316 48.3703 50.0734 48.3703ZM57.446 46.1064C57.2336 46.1061 57.0299 46.0216 56.8797 45.8714C56.7295 45.7212 56.6451 45.5176 56.6448 45.3052C56.6448 44.8632 57.0042 44.5038 57.446 44.5038C57.8878 44.5038 58.2473 44.8632 58.2473 45.3052C58.2473 45.747 57.8878 46.1064 57.446 46.1064Z"></path><path d="M31.4085 52.0767C31.7634 51.2208 31.3572 50.2393 30.5013 49.8844C29.6454 49.5295 28.6639 49.9357 28.3091 50.7916C27.9542 51.6475 28.3603 52.629 29.2162 52.9839C30.0721 53.3387 31.0536 52.9326 31.4085 52.0767Z"></path><path d="M30.1087 10.4579C31.0232 10.309 31.6438 9.44695 31.4949 8.53252C31.346 7.61809 30.4839 6.99753 29.5694 7.14647C28.6549 7.2954 28.0343 8.15743 28.1832 9.07186C28.3322 9.98629 29.1942 10.6069 30.1087 10.4579Z"></path><path d="M12.428 17.0833C11.5015 17.0833 10.7505 17.8343 10.7505 18.7609C10.7505 19.6874 11.5015 20.4384 12.428 20.4384C13.3545 20.4384 14.1057 19.6874 14.1057 18.7609C14.1056 17.8344 13.3545 17.0833 12.428 17.0833ZM47.4062 17.0833C46.4797 17.0833 45.7285 17.8343 45.7285 18.7609C45.7285 19.6874 46.4795 20.4384 47.4062 20.4384C48.3326 20.4384 49.0837 19.6874 49.0837 18.7609C49.0837 17.8344 48.3326 17.0833 47.4062 17.0833Z"></path></g></svg>