<svg xmlns="http://www.w3.org/2000/svg" width="60" height="60" fill='#ED7F22' viewBox="0 0 60 60">
  <g clip-path="url(#clip0_1453_839)">
    <path d="M22.1517 12.4027C22.1517 11.6926 21.7835 11.0561 21.1666 10.7001L14.9478 7.10975C14.331 6.75366 13.5957 6.75293 12.9808 7.10803C12.366 7.46289 11.9989 8.10011 11.9989 8.81227V15.9933C11.9989 16.7054 12.366 17.3427 12.9809 17.6975C13.2878 17.8747 13.6247 17.9634 13.962 17.9634C14.3003 17.9634 14.639 17.8741 14.9479 17.6957L21.1667 14.1055C21.7834 13.7493 22.1517 13.1128 22.1517 12.4027ZM20.5544 13.0451L14.3356 16.6353C13.9991 16.8297 13.7043 16.7013 13.5932 16.6371C13.482 16.573 13.2234 16.3817 13.2234 15.9933V8.81227C13.2234 8.42374 13.4818 8.2326 13.5932 8.16844C13.6605 8.12962 13.7952 8.06717 13.9658 8.06717C14.0768 8.06717 14.2031 8.09362 14.3357 8.17015L20.5545 11.7605C20.891 11.9548 20.9273 12.2743 20.9273 12.4027C20.9273 12.5312 20.8909 12.8508 20.5544 13.0451ZM55.6687 17.7798C55.6341 17.7118 55.596 17.6457 55.5544 17.5817C56.2277 17.2187 56.6863 16.5071 56.6863 15.6901C56.6863 15.2676 56.5637 14.8732 56.3521 14.5408C57.056 14.1878 57.5401 13.4593 57.5401 12.6198C57.5401 12.1718 57.4022 11.7553 57.1665 11.4108C57.8098 11.0394 58.2437 10.3442 58.2437 9.54966C58.2437 8.36558 57.2804 7.40228 56.0963 7.40228H50.545C49.9182 6.15967 50.0757 5.5942 50.2875 4.83343C50.4441 4.27077 50.6217 3.63306 50.5086 2.71139C50.3912 1.75359 49.8788 0.830698 49.2033 0.360128C48.7342 0.0334347 48.2095 -0.0737078 47.6862 0.0498429C47.2539 0.152088 46.2411 0.59327 46.1719 2.478C46.1304 3.60955 45.2459 5.39032 44.5511 6.05436C44.3643 6.23301 44.18 6.39269 43.9851 6.56179C43.5569 6.93293 43.1181 7.31436 42.6826 7.87566C42.3048 7.55685 41.8264 7.38208 41.3321 7.38232H39.4538C38.2945 7.38232 37.3514 8.32554 37.3514 9.48488V17.597H34.1485V4.48041C34.1485 2.01 32.1386 0.000128754 29.6683 0.000128754H4.48015C2.00987 0.000128754 0 2.01 0 4.48041V20.325C0 22.7954 2.00987 24.8053 4.48015 24.8053H18.9902V35.6905C17.1783 34.7206 15.1101 34.1696 12.9152 34.1696C5.79366 34.1697 0 39.9635 0 47.085C0 54.2063 5.79366 60 12.9152 60C20.0367 60 25.8304 54.2063 25.8304 47.0848C25.8304 46.0656 25.7113 45.0737 25.487 44.1221H39.771L49.4812 52.1078C49.5707 52.1816 49.6794 52.2284 49.7946 52.2427C49.9097 52.257 50.0266 52.2383 50.1315 52.1886C50.2364 52.1391 50.3251 52.0607 50.3872 51.9627C50.4493 51.8647 50.4823 51.7511 50.4823 51.635V44.1221H54.2316C57.4123 44.1221 59.9999 41.5345 59.9999 38.3539V23.3654C59.9999 20.728 58.1972 18.4309 55.6687 17.7798ZM44.7871 7.48701C44.9845 7.31583 45.1886 7.13877 45.397 6.93966C46.2953 6.08118 47.3409 4.00983 47.3954 2.52306C47.4081 2.17543 47.4895 1.35478 47.9677 1.24164C48.1478 1.19902 48.3229 1.23931 48.5034 1.36506C48.8938 1.63702 49.2185 2.25196 49.2932 2.86065C49.3766 3.54012 49.2461 4.00886 49.1078 4.50514C48.9218 5.17285 48.7314 5.85673 49.0258 6.88811C48.9306 6.79127 48.806 6.72878 48.6715 6.71045C48.5369 6.69212 48.4001 6.719 48.2825 6.78685C48.2129 6.82704 48.1518 6.88056 48.1029 6.94434C48.0539 7.00812 48.018 7.08093 47.9972 7.15859C47.9764 7.23626 47.9711 7.31726 47.9816 7.39697C47.9921 7.47669 48.0182 7.55355 48.0584 7.62317C48.4321 8.27044 49.0167 8.62689 49.7045 8.62689H50.1664C50.1741 8.62713 50.1818 8.62713 50.1894 8.62689H56.0962C56.6051 8.62689 57.0191 9.04088 57.0191 9.54978C57.0191 10.0586 56.6051 10.4726 56.0962 10.4726H55.3926C55.2302 10.4726 55.0745 10.5371 54.9597 10.6519C54.8449 10.7667 54.7804 10.9224 54.7804 11.0848C54.7804 11.2472 54.8449 11.4029 54.9597 11.5177C55.0745 11.6325 55.2302 11.697 55.3926 11.697C55.9015 11.697 56.3155 12.111 56.3155 12.6199C56.3155 13.1287 55.9015 13.5427 55.3926 13.5427H54.5387C54.3763 13.5427 54.2206 13.6072 54.1057 13.722C53.9909 13.8369 53.9264 13.9926 53.9264 14.155C53.9264 14.3173 53.9909 14.4731 54.1057 14.5879C54.2206 14.7027 54.3763 14.7672 54.5387 14.7672C55.0476 14.7672 55.4616 15.1812 55.4616 15.6901C55.4616 16.1989 55.0476 16.6129 54.5387 16.6129H53.76C53.5976 16.6129 53.4419 16.6774 53.3271 16.7922C53.2123 16.907 53.1478 17.0627 53.1478 17.2251C53.1478 17.3875 53.2123 17.5432 53.3271 17.658C53.4419 17.7729 53.5976 17.8374 53.76 17.8374C54.2688 17.8374 54.6828 18.2514 54.6828 18.7603C54.6828 19.2691 54.2688 19.6831 53.76 19.6831H46.6015C45.0726 19.6831 44.0149 19.6042 43.4344 18.6149V9.48488C43.4339 9.32459 43.415 9.16489 43.378 9.00893C43.8256 8.32162 44.2745 7.93138 44.7871 7.48701ZM38.5758 9.48488C38.5758 9.00072 38.9697 8.6068 39.4537 8.6068H41.332C41.8161 8.6068 42.2099 9.00072 42.2099 9.48488V18.806C42.2099 19.2901 41.816 19.684 41.332 19.684H39.4537C39.3384 19.6842 39.2243 19.6614 39.1179 19.6171C39.0115 19.5728 38.9149 19.5079 38.8338 19.426C38.7519 19.3449 38.6869 19.2483 38.6426 19.1419C38.5983 19.0355 38.5756 18.9213 38.5758 18.806V9.48488ZM4.48015 23.5809C2.68506 23.5809 1.22449 22.1204 1.22449 20.3251V4.48041C1.22449 2.68518 2.68506 1.22462 4.48015 1.22462H29.6681C31.4633 1.22462 32.9238 2.68518 32.9238 4.48041V17.597H24.7584C21.5777 17.597 18.9901 20.1847 18.9901 23.3653V23.5808L4.48015 23.5809ZM5.16219 55.8268C6.31444 52.565 9.44729 50.2823 12.9152 50.2261C16.3833 50.2822 19.516 52.565 20.6681 55.8268C18.6033 57.6601 15.8872 58.7755 12.9152 58.7755C9.94308 58.7755 7.22717 57.6601 5.16219 55.8268ZM21.6148 54.8857C20.9686 53.3608 19.9228 51.9988 18.6003 50.9829C16.954 49.7179 14.9913 49.0328 12.9245 49.0017C12.9183 49.0014 12.9122 49.0014 12.9061 49.0017C10.8394 49.0328 8.87668 49.7179 7.23023 50.9829C5.90778 51.9988 4.86195 53.3607 4.21579 54.8856C2.35702 52.815 1.22449 50.0798 1.22449 47.085C1.22449 40.6387 6.46897 35.3942 12.9152 35.3942C19.3615 35.3942 24.6059 40.6387 24.6059 47.085C24.6059 50.0799 23.4734 52.815 21.6148 54.8857ZM58.7754 38.3539C58.7754 40.8593 56.737 42.8976 54.2316 42.8976H49.8701C49.7077 42.8976 49.552 42.9621 49.4371 43.0769C49.3223 43.1917 49.2578 43.3475 49.2578 43.5098V50.3388L40.3793 43.0371C40.2697 42.9469 40.1323 42.8976 39.9904 42.8976H25.1332C24.2242 40.2526 22.4789 37.9933 20.2147 36.4363V23.3654C20.2147 20.8599 22.2531 18.8216 24.7585 18.8216H37.3519C37.3545 19.3739 37.576 19.9027 37.9678 20.292C38.3655 20.6897 38.8931 20.9086 39.4537 20.9086H41.332C42.0314 20.9086 42.6505 20.5639 43.0329 20.037C44.0404 20.9078 45.4326 20.9078 46.6017 20.9078H53.7601C54.8183 20.9078 55.698 20.1374 55.8735 19.1286C57.5934 19.7967 58.7754 21.4698 58.7754 23.3654V38.3539ZM40.6026 36.5327C40.6026 36.6951 40.5381 36.8508 40.4233 36.9656C40.3085 37.0804 40.1528 37.1449 39.9904 37.1449H26.9779C26.8155 37.1449 26.6598 37.0804 26.545 36.9656C26.4302 36.8508 26.3657 36.6951 26.3657 36.5327C26.3657 36.3703 26.4302 36.2146 26.545 36.0998C26.6598 35.985 26.8155 35.9205 26.9779 35.9205H39.9905C40.0709 35.9205 40.1505 35.9363 40.2248 35.9671C40.2991 35.9978 40.3666 36.0429 40.4234 36.0998C40.4803 36.1566 40.5253 36.2241 40.5561 36.2984C40.5868 36.3727 40.6027 36.4523 40.6026 36.5327ZM52.6244 30.8597C52.6244 31.022 52.5599 31.1778 52.4451 31.2926C52.3303 31.4074 52.1746 31.4719 52.0122 31.4719H26.9779C26.8155 31.4719 26.6598 31.4074 26.545 31.2926C26.4302 31.1778 26.3657 31.022 26.3657 30.8597C26.3657 30.6973 26.4302 30.5416 26.545 30.4267C26.6598 30.3119 26.8155 30.2474 26.9779 30.2474H52.0122C52.1746 30.2474 52.3303 30.3119 52.4451 30.4267C52.5599 30.5416 52.6244 30.6973 52.6244 30.8597ZM52.6244 25.1865C52.6244 25.3489 52.5599 25.5046 52.4451 25.6194C52.3303 25.7342 52.1746 25.7987 52.0122 25.7987H26.9779C26.8155 25.7987 26.6598 25.7342 26.545 25.6194C26.4302 25.5046 26.3657 25.3489 26.3657 25.1865C26.3657 25.0241 26.4302 24.8684 26.545 24.7536C26.6598 24.6387 26.8155 24.5742 26.9779 24.5742H52.0122C52.1746 24.5742 52.3303 24.6387 52.4451 24.7536C52.5599 24.8684 52.6244 25.0241 52.6244 25.1865ZM12.9152 38.2642C10.3004 38.2642 8.17296 40.3916 8.17296 43.0064C8.17296 45.6213 10.3003 47.7486 12.9152 47.7486C15.53 47.7486 17.6574 45.6213 17.6574 43.0064C17.6574 40.3916 15.53 38.2642 12.9152 38.2642ZM12.9152 46.524C10.9756 46.524 9.39745 44.946 9.39745 43.0063C9.39745 41.0666 10.9754 39.4886 12.9152 39.4886C14.8549 39.4886 16.4329 41.0666 16.4329 43.0063C16.4329 44.946 14.8547 46.524 12.9152 46.524Z"></path>
  </g>
</svg>