<svg xmlns="http://www.w3.org/2000/svg" width="50" height="57" fill="#ED7F22" viewBox="0 0 50 57"><circle cx="25.5" cy="33.5" r="23.5" fill="url(#paint0_linear_1505_1244)"></circle><g clip-path="url(#clip0_1505_1244)"><path d="M50 22.162V27.8378C50 29.2753 48.8305 30.4446 47.3932 30.4446H43.5581C43.1683 31.7734 42.6362 33.0563 41.9709 34.2708L44.6844 36.9842C45.7007 38.0006 45.7007 39.6545 44.6844 40.6709L40.671 44.6844C40.6475 44.7078 40.6236 44.7309 40.5994 44.7532C40.4552 44.8873 40.2654 44.9618 40.0685 44.9615C39.9114 44.9616 39.7579 44.9143 39.6282 44.8258C39.4984 44.7373 39.3983 44.6118 39.3409 44.4656C39.2836 44.3193 39.2716 44.1592 39.3066 44.0061C39.3416 43.853 39.422 43.714 39.5372 43.6072C39.547 43.5981 39.5566 43.5889 39.5661 43.5794L43.5795 39.5659C43.9867 39.1588 43.9867 38.4962 43.5795 38.0891L40.4452 34.9548C40.3228 34.8323 40.2445 34.6727 40.2227 34.5009C40.2008 34.3291 40.2367 34.1549 40.3246 34.0058C41.1604 32.5881 41.794 31.0605 42.2069 29.4675C42.2503 29.2999 42.3482 29.1515 42.4851 29.0455C42.622 28.9395 42.7902 28.882 42.9633 28.882H47.3931C47.9688 28.882 48.4374 28.4135 48.4374 27.8377V22.1619C48.4374 21.5861 47.9688 21.1177 47.3931 21.1177H42.9633C42.7902 21.1177 42.622 21.0602 42.4851 20.9542C42.3483 20.8483 42.2504 20.6999 42.207 20.5323C41.7939 18.9392 41.1603 17.4117 40.3246 15.9938C40.2367 15.8447 40.2008 15.6705 40.2227 15.4987C40.2445 15.3269 40.3228 15.1673 40.4452 15.0448L43.5796 11.9106C43.9867 11.5034 43.9867 10.8408 43.5795 10.4337L39.5661 6.42031C39.3702 6.22441 39.1081 6.1166 38.8276 6.1166C38.5472 6.1166 38.2849 6.22441 38.0891 6.42031L34.9549 9.55459C34.8324 9.67702 34.6728 9.75531 34.501 9.77714C34.3292 9.79897 34.155 9.76311 34.0059 9.67519C32.5882 8.8394 31.0606 8.20583 29.4676 7.79287C29.3 7.74947 29.1516 7.65164 29.0456 7.51474C28.9396 7.37785 28.8821 7.20964 28.8821 7.03652V2.60684C28.8821 2.03105 28.4137 1.5625 27.8379 1.5625H22.162C21.5862 1.5625 21.1178 2.03105 21.1178 2.60684V7.03662C21.1178 7.2097 21.0603 7.37787 20.9544 7.51475C20.8484 7.65162 20.7001 7.74945 20.5325 7.79287C18.9394 8.20596 17.4118 8.83955 15.994 9.67529C15.8448 9.76316 15.6707 9.79899 15.4989 9.77716C15.3272 9.75533 15.1675 9.67708 15.045 9.55469L11.9107 6.42041C11.7149 6.22451 11.4526 6.1167 11.1722 6.1167C10.8917 6.1167 10.6296 6.22451 10.4338 6.42031L6.42031 10.4338C6.01309 10.8409 6.01309 11.5035 6.42031 11.9108L9.55459 15.0449C9.67702 15.1674 9.7553 15.327 9.77715 15.4988C9.799 15.6705 9.76317 15.8447 9.67529 15.9938C8.83944 17.4116 8.20584 18.9392 7.79287 20.5323C7.74947 20.6999 7.65164 20.8483 7.51474 20.9543C7.37785 21.0603 7.20964 21.1178 7.03652 21.1178H2.60684C2.03105 21.1178 1.5625 21.5862 1.5625 22.162V27.8378C1.5625 28.4136 2.03105 28.8821 2.60684 28.8821H7.03662C7.20971 28.8821 7.3779 28.9396 7.51477 29.0456C7.65165 29.1515 7.74947 29.2999 7.79287 29.4675C8.20598 31.0605 8.83957 32.5881 9.67529 34.0059C9.76321 34.155 9.79907 34.3292 9.77724 34.501C9.7554 34.6728 9.67712 34.8324 9.55469 34.9549L6.42041 38.0892C6.01318 38.4963 6.01318 39.1589 6.42041 39.566L10.4339 43.5795C10.4443 43.59 10.4534 43.5988 10.4627 43.6073C10.6115 43.749 10.6986 43.9435 10.705 44.1488C10.7114 44.3542 10.6367 44.5538 10.4971 44.7045C10.3574 44.8551 10.164 44.9447 9.95881 44.9539C9.75357 44.963 9.55299 44.891 9.40049 44.7533C9.37566 44.7303 9.35131 44.7068 9.32744 44.6828L5.31553 40.671C4.29922 39.6546 4.29922 38.0007 5.31553 36.9843L8.029 34.2709C7.36378 33.0564 6.83166 31.7735 6.44189 30.4447H2.60684C1.16953 30.4447 0 29.2753 0 27.8379V22.1621C0 20.7247 1.16953 19.5554 2.60684 19.5554H6.44189C6.83164 18.2265 7.3638 16.9437 8.0291 15.7292L5.31562 13.0158C4.29932 11.9993 4.29932 10.3454 5.31562 9.329L9.3291 5.31562C9.82002 4.8248 10.4746 4.5543 11.1724 4.5543C11.8701 4.5543 12.5248 4.82471 13.0157 5.31562L15.7292 8.0291C16.9437 7.36388 18.2266 6.83176 19.5554 6.44199V2.60684C19.5553 1.16943 20.7247 0 22.162 0H27.8379C29.2753 0 30.4446 1.16943 30.4446 2.60684V6.44189C31.7735 6.83164 33.0563 7.3638 34.2708 8.0291L36.9842 5.31562C37.4752 4.82471 38.1299 4.5543 38.8276 4.5543C39.5254 4.5543 40.18 4.8248 40.6709 5.31572L44.6844 9.329C45.7007 10.3454 45.7007 11.9993 44.6844 13.0157L41.9709 15.7291C42.6361 16.9437 43.1682 18.2265 43.558 19.5554H47.3931C48.8305 19.5553 50 20.7247 50 22.162ZM34.5129 33.147C34.6482 33.2494 34.8132 33.3048 34.9829 33.3046C35.1039 33.3048 35.2233 33.2768 35.3316 33.2229C35.44 33.169 35.5343 33.0906 35.6071 32.9939C37.3565 30.676 38.2813 27.9116 38.2813 25C38.2813 17.6767 32.3233 11.7187 25 11.7187C17.6767 11.7187 11.7187 17.6767 11.7187 25C11.7187 27.9116 12.6435 30.676 14.3929 32.9939C14.5177 33.1593 14.7031 33.2684 14.9083 33.297C15.1135 33.3257 15.3217 33.2717 15.4871 33.1469C15.6525 33.022 15.7615 32.8366 15.7902 32.6314C15.8189 32.4262 15.7649 32.218 15.64 32.0526C14.0968 30.0079 13.2812 27.5691 13.2812 24.9999C13.2812 18.5381 18.5382 13.2811 25 13.2811C31.4618 13.2811 36.7188 18.5382 36.7188 25C36.7188 27.5692 35.9031 30.008 34.36 32.0527C34.2352 32.2181 34.1812 32.4263 34.2098 32.6315C34.2385 32.8367 34.3475 33.0221 34.5129 33.147ZM36.0859 35.6599C37.508 37.207 38.2911 39.2098 38.2911 41.2991V49.2188C38.2911 49.4259 38.2088 49.6247 38.0623 49.7712C37.9158 49.9177 37.7171 50 37.5099 50H12.4901C12.2829 50 12.0842 49.9177 11.9377 49.7712C11.7912 49.6247 11.7089 49.4259 11.7089 49.2188V41.2991C11.7089 39.2097 12.4921 37.207 13.9141 35.6599C15.327 34.1228 17.2398 33.173 19.3003 32.9858C19.6497 32.9532 19.9791 33.1604 20.1026 33.4898L21.524 37.2849L22.5817 40.0618L23.1354 37.1284L21.4962 34.1052C21.4316 33.9862 21.3991 33.8525 21.4018 33.7171C21.4045 33.5818 21.4424 33.4494 21.5116 33.3331C21.5809 33.2168 21.6792 33.1205 21.7969 33.0536C21.9146 32.9867 22.0476 32.9515 22.183 32.9516H27.8169C27.9523 32.9515 28.0853 32.9867 28.203 33.0536C28.3207 33.1205 28.419 33.2168 28.4883 33.3331C28.5575 33.4494 28.5954 33.5818 28.5981 33.7171C28.6008 33.8525 28.5683 33.9862 28.5037 34.1052L26.8645 37.1284L27.4182 40.0618L28.4774 37.2807L29.8972 33.4897C29.9572 33.3295 30.0683 33.1933 30.2132 33.1023C30.3582 33.0112 30.529 32.9703 30.6995 32.9857C32.7602 33.173 34.673 34.1228 36.0859 35.6599ZM24.0998 48.4375L20.0623 37.837L18.8578 34.6211C15.6817 35.1963 13.2714 38.0225 13.2714 41.2991V48.4375H24.0998ZM25 46.411L26.3551 42.8533L25.2776 37.1453C25.2443 36.9687 25.2729 36.786 25.3585 36.628L26.5047 34.5142H23.4953L24.6415 36.628C24.7271 36.786 24.7557 36.9687 24.7224 37.1453L23.6449 42.8533L25 46.411ZM36.7286 41.2991C36.7286 38.0225 34.3183 35.1963 31.1422 34.6211L29.9394 37.8329L25.9002 48.4375H36.7286V41.2991ZM25 17.9023C28.9699 17.9023 32.1998 21.1321 32.1998 25.1022C32.1998 29.0724 28.9699 32.3021 25 32.3021C21.03 32.3021 17.8001 29.0723 17.8001 25.1021C17.8001 21.132 21.03 17.9023 25 17.9023ZM25 19.4648C21.8916 19.4648 19.3626 21.9937 19.3626 25.1022C19.3626 28.2107 21.8916 30.7396 25 30.7396C28.1084 30.7396 30.6373 28.2106 30.6373 25.1021C30.6373 21.9937 28.1084 19.4648 25 19.4648Z"></path></g><defs><linearGradient id="paint0_linear_1505_1244" x1="25.5" y1="10" x2="25.5" y2="57" gradientUnits="userSpaceOnUse"><stop offset="0" stop-color="#06D889" stop-opacity="0"></stop><stop offset="1" stop-color="#06D889" stop-opacity="0.28"></stop></linearGradient><clipPath id="clip0_1505_1244"><rect width="50" height="50" fill="white"></rect></clipPath></defs></svg>