<svg xmlns="http://www.w3.org/2000/svg" width="60" fill='#ED7F22' height="60" viewBox="0 0 60 60">
  <path d="M57.6585 3.41467H10.2439C8.97561 3.41467 7.90244 4.43906 7.90244 5.75614V11.3171H2.34146C1.02439 11.3171 0 12.3415 0 13.6586V54.2439C0 55.5122 1.02439 56.5854 2.34146 56.5854H49.7561C51.0244 56.5854 52.0976 55.561 52.0976 54.2439V48.683H57.6585C58.9268 48.683 60 47.6586 60 46.3415V5.75614C60 4.43906 58.9756 3.41467 57.6585 3.41467ZM10.2439 5.36589H57.6585C57.8537 5.36589 58.0488 5.51223 58.0488 5.75614V12.4878H9.85366V5.75614C9.85366 5.51223 10.0488 5.36589 10.2439 5.36589ZM2.34146 13.2683H7.90244V20.3903H1.95122V13.6586C1.95122 13.4635 2.09756 13.2683 2.34146 13.2683ZM50.1463 54.2439C50.1463 54.4391 50 54.6342 49.7561 54.6342H2.34146C2.14634 54.6342 1.95122 54.4878 1.95122 54.2439V22.3415H7.90244V46.3415C7.90244 47.6098 8.92683 48.683 10.2439 48.683H50.1463V54.2439ZM57.6585 46.7317H10.2439C10.0488 46.7317 9.85366 46.5854 9.85366 46.3415V14.4391H58.0488V46.3415C58.0488 46.5366 57.9024 46.7317 57.6585 46.7317Z"></path>
  <path d="M18.0976 9.70732H14.4878C13.9512 9.70732 13.5122 9.2683 13.5122 8.73171C13.5122 8.19513 13.9512 7.7561 14.4878 7.7561H18.0976C18.6342 7.7561 19.0732 8.19513 19.0732 8.73171C19.0732 9.2683 18.6342 9.70732 18.0976 9.70732ZM26.3415 9.70732H22.7317C22.1951 9.70732 21.7561 9.2683 21.7561 8.73171C21.7561 8.19513 22.1951 7.7561 22.7317 7.7561H26.3415C26.8781 7.7561 27.3171 8.19513 27.3171 8.73171C27.3171 9.2683 26.8781 9.70732 26.3415 9.70732Z"></path>
  <path d="M18.9756 30.683L28.2439 35.4634V33.6098L21.1219 30.0488L28.2439 26.4878V24.6342L18.9756 29.3659V30.683ZM30.2927 36.0488H32.0488L37.5122 21.9025H35.7073L30.2927 36.0488ZM39.5122 24.6342V26.4878L46.6829 30.0488L39.5122 33.6098V35.4634L48.7805 30.683V29.3659L39.5122 24.6342Z"></path>
</svg>