<svg xmlns="http://www.w3.org/2000/svg" width="50" fill="#ED7F22" height="57" viewBox="0 0 50 57"><circle cx="25.5" cy="33.5" fill="#ffff" r="23.5" ></circle><g clip-path="#ED7F22"><path d="M7.49908 9.26982L9.09856 12.5761L12.7269 13.0699C13.4461 13.1665 13.7038 14.0575 13.21 14.5299L10.5585 17.074L11.2133 20.6809C11.3421 21.3894 10.5907 21.9261 9.96808 21.5826L6.73691 19.8436L3.50574 21.5826C2.88312 21.9154 2.09948 21.4001 2.27124 20.6272L2.91532 17.0633L0.263831 14.5191C-0.251439 14.0253 0.0276654 13.1451 0.757631 13.0485L4.37525 12.5547L5.97474 9.24835C6.27531 8.615 7.1985 8.62573 7.49908 9.26982ZM7.75671 13.7355L6.73691 11.61L5.70637 13.7355C5.58828 13.9824 5.34138 14.1756 5.05155 14.2186L2.7221 14.5299L4.42893 16.1616C4.62215 16.3548 4.7295 16.6339 4.67583 16.9237L4.25717 19.2424L6.31825 18.1368C6.56515 18.0079 6.87646 17.9865 7.13409 18.1368L9.20591 19.2532L8.79799 16.9774C8.73358 16.6983 8.80872 16.387 9.03415 16.1616L10.741 14.5299L8.433 14.2186C8.1539 14.1864 7.88553 14.0039 7.75671 13.7355ZM25.7697 1.4871L27.3692 4.79341L31.0083 5.28721C31.7275 5.38383 31.9851 6.27481 31.4913 6.75788L28.8398 9.30202L29.4947 12.9089C29.6235 13.6174 28.872 14.1541 28.2494 13.8106L24.9968 12.0716L21.7656 13.8106C21.143 14.1434 20.3594 13.6281 20.5311 12.8552L21.1752 9.29129L18.513 6.74715C17.9977 6.25334 18.2768 5.37309 19.0068 5.27648L22.6244 4.78268L24.2239 1.4871C24.5459 0.832277 25.4584 0.843012 25.7697 1.4871ZM26.0273 5.95277L24.9968 3.82728L23.977 5.95277C23.8589 6.19967 23.612 6.3929 23.3222 6.43584L20.982 6.74715L22.6888 8.37883C22.8928 8.57206 22.9894 8.85116 22.9357 9.141L22.517 11.4597L24.5889 10.354C24.8358 10.2252 25.1363 10.2037 25.4047 10.354L27.4765 11.4705L27.0686 9.19468C27.0042 8.91557 27.0793 8.60426 27.3048 8.37883L29.0116 6.74715L26.7036 6.4251C26.4138 6.40363 26.1561 6.22114 26.0273 5.95277ZM44.0296 9.26982L45.629 12.5761L49.2574 13.0699C49.9766 13.1665 50.245 14.0575 49.7405 14.5299L47.089 17.074L47.7438 20.6809C47.8726 21.3894 47.1212 21.9261 46.4986 21.5826L43.2674 19.8436L40.0362 21.5826C39.4136 21.9154 38.63 21.4001 38.791 20.6272L39.4351 17.0633L36.7836 14.5191C36.2683 14.0253 36.5474 13.1451 37.2774 13.0485L40.895 12.5547L42.4945 9.24835C42.8058 8.615 43.729 8.62573 44.0296 9.26982ZM44.2872 13.7355L43.2674 11.61L42.2369 13.7355C42.1188 13.9824 41.8826 14.1756 41.582 14.2186L39.2526 14.5299L40.9487 16.1616C41.1419 16.3548 41.2492 16.6339 41.1956 16.9237L40.7769 19.2424L42.8487 18.1368C43.0956 18.0079 43.4069 17.9865 43.6646 18.1368L45.7471 19.2532L45.3392 16.9774C45.2748 16.6983 45.3499 16.387 45.5754 16.1616L47.2715 14.5299L44.9635 14.2186C44.6844 14.1864 44.416 14.0039 44.2872 13.7355ZM21.0142 31.1903C20.778 30.7823 20.9176 30.2563 21.3255 30.0202C21.7334 29.784 22.2594 29.9235 22.4956 30.3315L23.6227 32.2852L27.6268 28.2811C27.9596 27.9484 28.5071 27.9484 28.8398 28.2811C29.1726 28.6139 29.1726 29.1614 28.8398 29.4942L24.0414 34.2926C23.6442 34.6898 22.9786 34.6039 22.6995 34.1208L21.0142 31.1903ZM24.9968 22.1194C29.6664 22.1194 33.4558 25.9087 33.4558 30.5784C33.4558 35.248 29.6664 39.0374 24.9968 39.0374C20.3271 39.0374 16.5378 35.248 16.5378 30.5784C16.5378 25.9087 20.3271 22.1194 24.9968 22.1194ZM29.763 25.8121C27.133 23.1821 22.8606 23.1821 20.2305 25.8121C17.6005 28.4422 17.6005 32.7146 20.2305 35.3446C22.8606 37.9746 27.133 37.9746 29.763 35.3446C32.393 32.7039 32.393 28.4422 29.763 25.8121ZM24.9968 16.8056C32.597 16.8056 38.7588 22.9674 38.7588 30.5676C38.7588 33.4446 37.8785 36.1175 36.3649 38.3289L40.4763 45.446C40.8735 46.1116 40.3261 46.863 39.6176 46.7557L35.4095 46.0901L33.1552 48.8597C32.758 49.375 32.0173 49.2891 31.7275 48.7738L28.8506 43.7929C26.3386 44.5229 23.6442 44.5229 21.143 43.7929L18.2661 48.7738C17.9762 49.2891 17.2355 49.375 16.8383 48.8597L14.584 46.0901L10.376 46.7557C9.65677 46.8738 9.15223 46.0901 9.49575 45.4783L13.6286 38.3289C9.89294 32.8649 10.5907 25.5116 15.2711 20.8312C17.7508 18.3514 21.1967 16.8056 24.9968 16.8056ZM35.227 39.7781C33.9174 41.238 32.3072 42.4081 30.4823 43.2025L32.5863 46.8416L34.3897 44.6302C34.5937 44.3726 34.905 44.276 35.2056 44.3296L38.104 44.7912L35.227 39.7781ZM19.5006 43.2025C17.6864 42.4081 16.0762 41.238 14.7665 39.7888L11.8789 44.7912L14.7773 44.3296C15.0671 44.276 15.3891 44.3833 15.5931 44.6302L17.3965 46.8416L19.5006 43.2025ZM33.5202 22.055C28.8184 17.3531 21.1859 17.3531 16.4841 22.055C11.7823 26.7568 11.7823 34.3892 16.4841 39.0911C21.1967 43.7929 28.8184 43.7929 33.5202 39.0911C38.222 34.3892 38.222 26.7568 33.5202 22.055Z"></path></g><defs><linearGradient id="paint0_linear_1505_1233" x1="25.5" y1="10" x2="25.5" y2="57" gradientUnits="userSpaceOnUse"><stop offset="0" stop-color="#06D889" stop-opacity="0"></stop><stop offset="1" stop-color="#06D889" stop-opacity="0.28"></stop></linearGradient><clipPath id="clip0_1505_1233"><rect width="50" height="50" fill="white"></rect></clipPath></defs></svg>